<?xml version="1.0" encoding="utf-8"?>
<svg aria-hidden="true" focusable="false" data-prefix="fas" data-icon="th-large" class="svg-inline--fa fa-th-large fa-w-16" role="img" viewBox="6.908 0 503.994 449.596" xmlns="http://www.w3.org/2000/svg">
  <path d="M 254.487 69.739 L 391.252 69.739 C 400.693 69.739 408.346 77.971 408.346 88.126 L 408.346 210.705 C 408.346 220.86 400.693 229.092 391.252 229.092 L 254.487 229.092 C 245.045 229.092 237.392 220.86 237.392 210.705 L 237.392 88.126 C 237.392 77.971 245.045 69.739 254.487 69.739 Z M 197.5 69.739 L 60.737 69.739 C 51.296 69.739 43.641 77.971 43.641 88.126 L 43.641 210.705 C 43.641 220.86 51.296 229.092 60.737 229.092 L 197.5 229.092 C 206.944 229.092 214.596 220.86 214.596 210.705 L 214.596 88.126 C 214.596 77.971 206.944 69.739 197.5 69.739 Z M 43.641 271.994 L 43.641 394.574 C 43.641 404.729 51.296 412.961 60.737 412.961 L 197.5 412.961 C 206.944 412.961 214.596 404.729 214.596 394.574 L 214.596 271.994 C 214.596 261.84 206.944 253.607 197.5 253.607 L 60.737 253.607 C 51.296 253.607 43.641 261.84 43.641 271.994 Z M 254.487 412.961 L 391.252 412.961 C 400.693 412.961 408.346 404.729 408.346 394.574 L 408.346 271.994 C 408.346 261.84 400.693 253.607 391.252 253.607 L 254.487 253.607 C 245.045 253.607 237.392 261.84 237.392 271.994 L 237.392 394.574 C 237.392 404.729 245.045 412.961 254.487 412.961 Z" style="fill: rgba(255, 255, 255, 0.8);"/>
</svg>